<svg xmlns="http://www.w3.org/2000/svg" xmlns:xlink="http://www.w3.org/1999/xlink" width="500" zoomAndPan="magnify" viewBox="0 0 375 74.999997" height="100" preserveAspectRatio="xMidYMid meet" version="1.0"><defs><g/></defs><g fill="#ffffff" fill-opacity="1"><g transform="translate(13.506354, 48.947083)"><g><path d="M 1.53125 -5.703125 C 8.71875 -5.304688 13.585938 -5.109375 16.140625 -5.109375 C 16.742188 -5.109375 17.222656 -5.285156 17.578125 -5.640625 C 17.929688 -5.992188 18.109375 -6.472656 18.109375 -7.078125 L 18.109375 -10.625 L 9.046875 -10.625 C 6.296875 -10.625 4.296875 -11.242188 3.046875 -12.484375 C 1.804688 -13.734375 1.1875 -15.738281 1.1875 -18.5 L 1.1875 -19.671875 C 1.1875 -22.429688 1.804688 -24.429688 3.046875 -25.671875 C 4.296875 -26.921875 6.296875 -27.546875 9.046875 -27.546875 L 22.875 -27.546875 L 22.875 -22.046875 L 10.625 -22.046875 C 9.050781 -22.046875 8.265625 -21.253906 8.265625 -19.671875 L 8.265625 -18.890625 C 8.265625 -17.316406 9.050781 -16.53125 10.625 -16.53125 L 17.71875 -16.53125 C 20.28125 -16.53125 22.164062 -15.925781 23.375 -14.71875 C 24.582031 -13.507812 25.1875 -11.617188 25.1875 -9.046875 L 25.1875 -7.078125 C 25.1875 -4.515625 24.582031 -2.628906 23.375 -1.421875 C 22.164062 -0.210938 20.28125 0.390625 17.71875 0.390625 C 16.375 0.390625 14.953125 0.363281 13.453125 0.3125 L 9.84375 0.15625 C 7.164062 0.0195312 4.394531 -0.160156 1.53125 -0.390625 Z M 1.53125 -5.703125 "/></g></g></g><g fill="#ffffff" fill-opacity="1"><g transform="translate(47.441352, 48.947083)"><g><path d="M 15.75 0 L 8.65625 0 L 8.65625 -22.046875 L 0.390625 -22.046875 L 0.390625 -27.546875 L 24.015625 -27.546875 L 24.015625 -22.046875 L 15.75 -22.046875 Z M 15.75 0 "/></g></g></g><g fill="#ffffff" fill-opacity="1"><g transform="translate(79.408033, 48.947083)"><g><path d="M 7.28125 0 L -0.390625 0 L 10.03125 -27.546875 L 17.90625 -27.546875 L 28.34375 0 L 20.65625 0 L 18.890625 -4.921875 L 9.046875 -4.921875 Z M 10.828125 -10.03125 L 17.125 -10.03125 L 13.96875 -19.28125 Z M 10.828125 -10.03125 "/></g></g></g><g fill="#ffffff" fill-opacity="1"><g transform="translate(114.917687, 48.947083)"><g><path d="M 25.984375 -0.59375 C 19.835938 0.0625 14.191406 0.390625 9.046875 0.390625 C 6.484375 0.390625 4.597656 -0.210938 3.390625 -1.421875 C 2.179688 -2.628906 1.578125 -4.515625 1.578125 -7.078125 L 1.578125 -19.671875 C 1.578125 -22.429688 2.195312 -24.429688 3.4375 -25.671875 C 4.6875 -26.921875 6.691406 -27.546875 9.453125 -27.546875 L 23.609375 -27.546875 L 23.609375 -22.046875 L 11.015625 -22.046875 C 9.441406 -22.046875 8.65625 -21.253906 8.65625 -19.671875 L 8.65625 -7.078125 C 8.65625 -6.472656 8.832031 -5.992188 9.1875 -5.640625 C 9.539062 -5.285156 10.019531 -5.109375 10.625 -5.109375 C 13.644531 -5.109375 16.398438 -5.175781 18.890625 -5.3125 L 18.890625 -11.015625 L 13.78125 -11.015625 L 13.78125 -15.75 L 25.984375 -15.75 Z M 25.984375 -0.59375 "/></g></g></g><g fill="#ffffff" fill-opacity="1"><g transform="translate(150.033675, 48.947083)"><g><path d="M 24.203125 0 L 2.359375 0 L 2.359375 -27.546875 L 24.203125 -27.546875 L 24.203125 -22.046875 L 9.453125 -22.046875 L 9.453125 -16.734375 L 21.0625 -16.734375 L 21.0625 -11.21875 L 9.453125 -11.21875 L 9.453125 -5.515625 L 24.203125 -5.515625 Z M 24.203125 0 "/></g></g></g><g fill="#ffffff" fill-opacity="1"><g transform="translate(182.59085, 48.947083)"><g><path d="M 22.4375 -27.546875 L 27.15625 -9.84375 L 31.296875 -27.546875 L 38.96875 -27.546875 L 31.484375 0 L 24.015625 0 L 19.28125 -17.125 L 14.5625 0 L 7.078125 0 L -0.390625 -27.546875 L 7.28125 -27.546875 L 11.421875 -9.84375 L 16.140625 -27.546875 Z M 22.4375 -27.546875 "/></g></g></g><g fill="#ffffff" fill-opacity="1"><g transform="translate(228.729447, 48.947083)"><g><path d="M 20.078125 -20.078125 C 20.078125 -21.648438 19.289062 -22.4375 17.71875 -22.4375 L 11.015625 -22.4375 C 9.441406 -22.4375 8.65625 -21.648438 8.65625 -20.078125 L 8.65625 -7.484375 C 8.65625 -5.898438 9.441406 -5.109375 11.015625 -5.109375 L 17.71875 -5.109375 C 19.289062 -5.109375 20.078125 -5.898438 20.078125 -7.484375 Z M 27.15625 -7.484375 C 27.15625 -4.722656 26.53125 -2.71875 25.28125 -1.46875 C 24.039062 -0.226562 22.039062 0.390625 19.28125 0.390625 L 9.453125 0.390625 C 6.691406 0.390625 4.6875 -0.226562 3.4375 -1.46875 C 2.195312 -2.71875 1.578125 -4.722656 1.578125 -7.484375 L 1.578125 -20.078125 C 1.578125 -22.828125 2.195312 -24.820312 3.4375 -26.0625 C 4.6875 -27.3125 6.691406 -27.9375 9.453125 -27.9375 L 19.28125 -27.9375 C 22.039062 -27.9375 24.039062 -27.3125 25.28125 -26.0625 C 26.53125 -24.820312 27.15625 -22.828125 27.15625 -20.078125 Z M 27.15625 -7.484375 "/></g></g></g><g fill="#ffffff" fill-opacity="1"><g transform="translate(265.026428, 48.947083)"><g><path d="M 2.359375 -27.546875 L 18.890625 -27.546875 C 21.648438 -27.546875 23.648438 -26.921875 24.890625 -25.671875 C 26.140625 -24.429688 26.765625 -22.429688 26.765625 -19.671875 L 26.765625 -16.140625 C 26.765625 -13.960938 26.398438 -12.269531 25.671875 -11.0625 C 24.953125 -9.851562 23.804688 -9.050781 22.234375 -8.65625 L 27.15625 0 L 19.484375 0 L 14.953125 -8.265625 L 9.453125 -8.265625 L 9.453125 0 L 2.359375 0 Z M 19.671875 -19.671875 C 19.671875 -21.253906 18.882812 -22.046875 17.3125 -22.046875 L 9.453125 -22.046875 L 9.453125 -13.78125 L 17.3125 -13.78125 C 18.882812 -13.78125 19.671875 -14.566406 19.671875 -16.140625 Z M 19.671875 -19.671875 "/></g></g></g><g fill="#ffffff" fill-opacity="1"><g transform="translate(300.92974, 48.947083)"><g><path d="M 9.453125 0 L 2.359375 0 L 2.359375 -27.546875 L 9.453125 -27.546875 L 9.453125 -16.734375 L 12.984375 -16.734375 L 19.125 -27.546875 L 26.609375 -27.546875 L 18.890625 -13.96875 L 26.5625 0 L 19.09375 0 L 12.984375 -11.21875 L 9.453125 -11.21875 Z M 9.453125 0 "/></g></g></g><g fill="#ffffff" fill-opacity="1"><g transform="translate(335.100954, 48.947083)"><g><path d="M 1.53125 -5.703125 C 8.71875 -5.304688 13.585938 -5.109375 16.140625 -5.109375 C 16.742188 -5.109375 17.222656 -5.285156 17.578125 -5.640625 C 17.929688 -5.992188 18.109375 -6.472656 18.109375 -7.078125 L 18.109375 -10.625 L 9.046875 -10.625 C 6.296875 -10.625 4.296875 -11.242188 3.046875 -12.484375 C 1.804688 -13.734375 1.1875 -15.738281 1.1875 -18.5 L 1.1875 -19.671875 C 1.1875 -22.429688 1.804688 -24.429688 3.046875 -25.671875 C 4.296875 -26.921875 6.296875 -27.546875 9.046875 -27.546875 L 22.875 -27.546875 L 22.875 -22.046875 L 10.625 -22.046875 C 9.050781 -22.046875 8.265625 -21.253906 8.265625 -19.671875 L 8.265625 -18.890625 C 8.265625 -17.316406 9.050781 -16.53125 10.625 -16.53125 L 17.71875 -16.53125 C 20.28125 -16.53125 22.164062 -15.925781 23.375 -14.71875 C 24.582031 -13.507812 25.1875 -11.617188 25.1875 -9.046875 L 25.1875 -7.078125 C 25.1875 -4.515625 24.582031 -2.628906 23.375 -1.421875 C 22.164062 -0.210938 20.28125 0.390625 17.71875 0.390625 C 16.375 0.390625 14.953125 0.363281 13.453125 0.3125 L 9.84375 0.15625 C 7.164062 0.0195312 4.394531 -0.160156 1.53125 -0.390625 Z M 1.53125 -5.703125 "/></g></g></g></svg>